<svg xmlns="http://www.w3.org/2000/svg" width="50" viewBox="0 0 395 381" height="50" fill="currentcolor"><path d="M152.621 32.543c-3.191.414-4.152.457-8.7.379-4.41-.074-4.929-.055-5.41.195-.327.168-.84.266-1.331.25-.97-.035-2.352.633-4.559 2.192-2.906 2.054-5.422 5.175-7.281 9.02-2.156 4.456-2.875 7.804-2.945 13.679l-.032 2.754 1.496 2.765c2.387 4.41 2.95 5.828 4.286 10.828.359 1.356.753 2.723.87 3.04.122.316.262.894.317 1.285s.273 1.039.48 1.441c.211.402.418 1.012.47 1.356.109.789 2.105 4.894 2.843 5.855.309.398.797 1.176 1.09 1.727.297.55.937 1.484 1.43 2.078.492.59 1.175 1.508 1.52 2.035.882 1.36 2.5 3.266 3.683 4.351.558.512 1.953 1.54 3.101 2.286 1.149.75 2.13 1.457 2.18 1.574s.137.594.191 1.055l.098.84-1.5 1.57c-2.582 2.703-5.356 4.886-11.02 8.68-4.691 3.14-7.972 6.128-10.851 9.886-1.984 2.582-8.5 13.594-13.3 22.477-4.485 8.285-6.255 10.875-10.497 15.336-2.871 3.02-5.89 5.293-10.871 8.187-6.692 3.887-17.453 10.766-18.734 11.977-.274.257-.942.695-1.485.968-.543.274-1.773 1.032-2.738 1.684-.965.648-1.914 1.23-2.117 1.293-.2.059-1.48.633-2.844 1.277-4.203 1.977-7.988 3.375-9.36 3.457-.628.035-2.984-.535-4.8-1.164-2.98-1.031-4.543-.734-5.43 1.043-.457.918-.465.965-.285 2.078.098.63.363 1.743.586 2.48l.406 1.337-.316.445c-.176.242-1.16 1.227-2.188 2.184-2.386 2.218-3.55 3.687-4.531 5.714-1.32 2.727-1.727 4.993-1.871 10.422-.188 7.149.273 8.75 3.687 12.801.664.793 1.426 1.836 1.684 2.32.957 1.778 2.332 2.586 4.582 2.688 1.957.09 2.734-.258 3.61-1.61.894-1.386.921-1.89.238-4.683-.578-2.352-.578-2.371-.305-3.102.36-.968 1.125-2.175 2.5-3.933 3.516-4.496 9.906-10.95 11.805-11.926.882-.453 4.363-1.48 10.066-2.973 11.145-2.918 17.207-4.882 21.14-6.855 3.778-1.899 13.923-8.59 18.087-11.934 2.738-2.199 4.543-3.097 7.527-3.757.96-.215 2.082-.54 2.496-.72.57-.253 1.918-1.488 5.633-5.175 2.683-2.66 5.25-5.145 5.703-5.512l.828-.675.504.605c1.285 1.527 3.348 6.68 4.531 11.32 1.317 5.149 1.95 9.278 1.828 11.922-.07 1.586-.187 2.195-.84 4.399-2.011 6.78-2.175 8.437-1.265 12.96.738 3.672.422 5.93-1.441 10.305-1.434 3.367-1.61 4.082-1.61 6.574.004 1.758.07 2.395.363 3.403.196.683.356 1.558.356 1.941 0 1.426-1.64 3.23-8 8.801-6.902 6.047-13.578 12.672-18.887 18.738-2.52 2.88-8.851 10.567-10.406 12.64-2.723 3.618-7.34 10.255-10.578 15.2-4.445 6.781-7.317 11.711-9.883 16.957-4.473 9.149-6.855 16.746-9.922 31.602-.719 3.476-1.664 7.867-2.101 9.761-1.004 4.348-1.75 8.348-2.454 13.125-.93 6.348-1.21 10.11-1.464 19.618-.106 3.898-.098 4.043.226 4.562.184.293.496.637.7.762.652.398 5.796.492 21.492.394 16.093-.105 15.496-.07 15.933-.89.238-.446 4.262-12.29 5.195-15.301 1.81-5.82 2.567-9.512 4.23-20.676.364-2.418.903-5.683 1.2-7.262.64-3.394.504-3.152 4.567-8.093q2.735-3.335 5.453-6.68c2.363-2.914 3.5-4.145 6.273-6.797a340 340 0 0 0 6.645-6.562c4.648-4.739 9.03-8.489 15.941-13.633 12.508-9.313 18.61-12.79 25.578-14.563 5.086-1.293 7.594-1.047 12.184 1.2 2.844 1.39 5.332 3.324 10.379 8.062 3.996 3.754 14.945 14.719 18.27 18.305q2.344 2.525 4.695 5.039c2.289 2.449 3.832 4.289 5.05 6.027 1.41 2.016 3.907 4.461 5.285 5.18.77.402 1.77 1.191 3.2 2.515 1.144 1.063 2.34 2.125 2.652 2.364.371.277.73.566 1.086.863.504.422.508.441.27.906-.254.492-.325 1.387-.149 1.848.055.144.516.543 1.027.89.54.364 2.758 2.547 5.317 5.231 4.906 5.145 7.762 7.832 11.59 10.918 6.64 5.352 7.914 7.152 10.53 14.887 2.411 7.117 6.044 15.757 6.798 16.16.441.238 43.379.219 43.894-.016.41-.187.746-.754.746-1.262 0-.582-7.043-23.917-9.707-32.164-1.46-4.523-2.625-7.164-4.164-9.441-.754-1.117-1.96-2.398-2.261-2.398-.07 0-.286-.274-.473-.606-.484-.867-.91-1.2-1.664-1.305-.629-.086-.664-.12-.848-.836-.23-.914-.62-1.437-2.879-3.875-7.328-7.906-12.308-13.824-16.632-19.761-2.614-3.582-3.41-4.813-5.41-8.336-2.704-4.754-4.852-8.781-10.848-20.32-4.086-7.864-9.625-17.762-13.559-24.239-6.723-11.074-7.559-12.523-9.965-17.363-1.68-3.371-2.582-5.504-2.906-6.883-.273-1.172-.27-7.742.012-9.676.41-2.843.515-7.672.61-27.84.1-22.363.023-26.222-.688-32.976-.688-6.57-.563-12.527.433-20.441.176-1.399.375-2.801.446-3.122.12-.57.136-.578.843-.542.399.019 2.23.367 4.07.769 5.633 1.242 5.266 1.215 18.852 1.309l12.145.082 4.015 1.347c7.246 2.434 8.848 2.868 12 3.254 2.836.348 8.266.473 21.059.477 15.914.008 18.14.133 20.527 1.16.457.195 2.281 1.445 4.051 2.777 4.855 3.649 5.938 4.227 7.914 4.227 1.813 0 2.828-.738 4.129-2.996.652-1.133.672-1.149 1.102-.965.238.105 1.406.828 2.59 1.61 3.581 2.363 4.726 2.827 6.964 2.827 1.867.004 2.418-.195 3.39-1.218l.833-.871.957.765c1.543 1.235 3.617 2.461 5.195 3.063 1.258.484 1.703.574 3.156.632 1.485.06 1.793.024 2.512-.289 1.73-.742 3.2-2.918 3.63-5.375.358-2.062.78-6.535.671-7.12-.313-1.633-3.398-4.669-7.64-7.5-3.77-2.524-5.368-3.192-8.383-3.512-.899-.094-1.68-.278-2.079-.489-.351-.187-.812-.304-1.023-.27-.211.04-.68-.062-1.04-.226-.362-.164-.812-.3-1.003-.304-.187 0-.656-.184-1.04-.403-1.405-.808-6.046-2.094-6.96-1.926-.277.055-.59.2-.7.332-.148.176-.57.235-1.71.235-1.23 0-1.598.058-1.942.3-.57.41-5.402.747-8.664.606-3.87-.168-9.66-1.14-12.48-2.105-.922-.313-2.004-.645-2.399-.735-.398-.09-1.187-.347-1.761-.578-.57-.226-2.371-.75-4-1.164-2.57-.648-3.028-.812-3.489-1.246-.289-.277-.683-.55-.878-.613-.192-.063-.567-.278-.832-.477-.903-.687-4.82-2.219-7.122-2.781-1.812-.445-4.136-1.527-4.714-2.195-.454-.528-.57-.575-1.766-.696-1.535-.156-3.914-.726-4.797-1.148-.351-.168-1.289-.38-2.082-.465a26 26 0 0 1-2.96-.54c-.837-.21-2.673-.648-4.079-.972-3.117-.719-9.703-2.965-12.633-4.308-.27-.125-1.113-.48-1.875-.793-2.215-.907-7.972-3.528-10.265-4.676-3.559-1.781-7.258-3.93-14.188-8.25-11.25-7.008-20.98-12.149-25.426-13.426-2.324-.668-4.547-.863-11.613-1.02-2.2-.05-7.098-.16-10.879-.242-8.117-.18-8.332-.199-8.644-.804-.125-.242-.473-.594-.774-.778-.492-.304-.781-.336-3.129-.336-2.176 0-2.597-.039-2.68-.246-.23-.597-1.972-.965-2.433-.511-.535.527-1.227-1.649-1.477-4.645-.293-3.535-.218-4 1.098-6.652 1.668-3.36 1.68-3.406 1.762-6.754.097-4.086-.242-5.918-1.473-7.91a11.3 11.3 0 0 1-.879-1.883c-.316-.945-.324-1.031-.078-1.504.387-.746.211-1.7-.406-2.254-.774-.687-1.871-.523-2.32.348-.286.547-.329 1.648-.083 2.105.122.223.102.496-.07.988-.133.375-.242.536-.25.36-.015-.656-.351-1.528-.902-2.348-.535-.793-.555-.867-.336-1.25.527-.906.933-4.375.617-5.281-.144-.414-.133-.582.059-.852.73-1.043-.094-2.214-4.953-7.078-3.508-3.508-4.766-4.55-5.477-4.55-.207 0-.371-.07-.371-.157 0-.297-.89-.601-2.082-.715-.676-.062-1.375-.226-1.602-.379-.465-.308-3.37-.414-5.117-.187"/></svg>